PathFileType	4	(X/Y/Z)	D:\TRACE\v60_Jaco2_6-2-23\JustArmDRS_Motion3_5-v60.trc
DataRate	CameraRate	NumFrames	NumMarkers	Units	OrigDataRate	OrigDataStartFrame	OrigNumFrames
100.00	100.00	      28	9	mm	100.00	1	      7000
Frame#	Time	front left toe			Front right toe			aft left toe			aft right toe			Arm			FL body			FR body			AL Body			AR Body			
		X1	Y1	Z1	X2	Y2	Z2	X3	Y3	Z3	X4	Y4	Z4	X5	Y5	Z5	X6	Y6	Z6	X7	Y7	Z7	X8	Y8	Z8	X9	Y9	Z9	

1	0.000	-205.21123	63.24110	-206.37794	193.38272	52.25927	-142.45006	-294.45596	-47.28858	420.90015	115.73926	-50.90126	436.44635	-10.71075	1246.41357	-80.68638	-67.96379	641.66412	-304.36688	89.18717	640.55237	-283.17972	-183.41611	478.45145	619.08594	-32.67150	468.83884	637.01123	
2	0.010	-205.22125	63.20968	-206.35605	193.35854	52.23634	-142.46812	-293.31052	-48.22146	420.95471	115.69817	-50.86507	436.43689	-10.76111	1246.40479	-80.71501	-67.96216	641.63135	-304.36163	89.18109	640.53406	-283.20468	-183.40675	478.42538	619.09644	-32.71492	468.81998	637.01746	
3	0.020	-205.18646	63.20049	-206.35146	193.37625	52.25763	-142.46346	-294.48550	-47.30203	420.88495	115.83804	-50.75861	436.42828	-10.71157	1246.41040	-80.69154	-67.94947	641.64520	-304.39282	89.17381	640.54956	-283.21414	-183.42851	478.45715	619.09290	-32.63632	468.83511	636.99982	
4	0.030	-205.20450	63.20927	-206.36839	193.40422	52.25621	-142.45683	-294.49799	-47.29325	420.86496	115.89791	-50.78172	436.47583	-10.68842	1246.42224	-80.66702	-67.96735	641.62012	-304.40894	89.22633	640.54449	-283.21396	-183.44165	478.44049	619.11353	-32.67101	468.84894	636.99500	
5	0.040	-205.20538	63.22464	-206.35959	193.28816	52.24798	-142.53204	-294.49936	-47.30296	420.85336	115.88029	-50.79432	436.44113	-10.70343	1246.43628	-80.68968	-67.96989	641.64063	-304.39343	89.15282	640.56628	-283.24576	-183.39232	478.45151	619.08490	-32.67223	468.83859	636.98901	
6	0.050	-205.21114	63.21567	-206.37318	193.36974	52.24193	-142.47197	-294.50201	-47.30105	420.86115	115.74751	-50.90952	436.43637	-10.71623	1246.40845	-80.70225	-67.91380	641.61511	-304.40872	89.18214	640.57324	-283.23172	-183.40596	478.46017	619.10492	-32.68970	468.83130	636.98016	
7	0.060	-205.19611	63.19703	-206.37788	193.38100	52.22398	-142.49008	-293.35678	-48.16309	420.97314	115.70380	-50.92726	436.43445	-10.73436	1246.40613	-80.71150	-67.98130	641.65558	-304.44345	89.17046	640.54443	-283.23834	-183.37433	478.44919	619.10779	-32.67628	468.81494	637.00232	
8	0.070	-205.19765	63.17774	-206.35249	193.32224	52.23735	-142.50188	-293.38251	-48.15508	420.95801	115.71649	-50.91997	436.42300	-10.71504	1246.42590	-80.69778	-67.94853	641.62378	-304.39926	89.22492	640.54510	-283.22299	-183.39697	478.45984	619.09271	-32.67191	468.85440	636.98193	
9	0.080	-205.20723	63.19569	-206.36411	193.36107	52.23154	-142.53159	-293.36322	-48.17466	420.94873	115.79990	-50.88403	436.43454	-10.64255	1246.41394	-80.70195	-67.97044	641.65540	-304.39270	89.21665	640.54828	-283.23706	-183.39186	478.45636	619.09509	-32.62217	468.85098	637.01654	
10	0.090	-205.18298	63.19811	-206.37820	193.37093	52.25522	-142.46216	-293.36118	-48.15163	420.96890	115.84328	-50.83508	436.44693	-10.70721	1246.41711	-80.68083	-67.93622	641.64771	-304.43359	89.21233	640.57269	-283.25491	-183.39696	478.49380	619.10040	-32.63818	468.86221	636.99817	
11	0.100	-205.21341	63.21287	-206.36060	193.35506	52.22422	-142.51234	-294.49854	-47.29927	420.88672	115.82436	-50.83144	436.45251	-10.66179	1246.40552	-80.69073	-67.92892	641.62476	-304.41080	89.23125	640.56793	-283.23547	-183.37625	478.47711	619.09857	-32.66143	468.87161	637.01263	
12	0.110	-205.19484	63.21112	-206.35570	193.33202	52.19381	-142.47580	-293.33652	-48.19122	420.95679	115.69611	-50.92042	436.42929	-10.64471	1246.39941	-80.71573	-67.88013	641.62537	-304.41165	89.23063	640.54004	-283.20776	-183.38559	478.45361	619.08704	-32.69425	468.84357	636.99835	
13	0.120	-205.18274	63.19974	-206.33746	193.40079	52.24593	-142.49501	-293.35928	-48.14701	420.96170	115.71277	-50.91401	436.44006	-10.63267	1246.40527	-80.70962	-67.89999	641.63831	-304.40372	89.20230	640.55261	-283.24319	-183.37425	478.45056	619.10992	-32.66425	468.82071	636.98700	
14	0.130	-205.20732	63.20016	-206.37172	193.36356	52.20872	-142.49275	-293.33392	-48.17045	420.95044	115.66685	-50.92270	436.42624	-10.64427	1246.40967	-80.71326	-67.88737	641.63043	-304.44409	89.23499	640.59375	-283.25229	-183.38965	478.44492	619.08160	-32.67110	468.83942	637.00879	
15	0.140	-205.20538	63.18473	-206.33414	193.35979	52.24477	-142.51183	-294.48941	-47.29983	420.87463	115.80727	-50.83941	436.43964	-10.61391	1246.41003	-80.69020	-67.89797	641.63623	-304.42419	89.23019	640.59290	-283.25327	-183.33971	478.46512	619.07440	-32.64101	468.84827	636.99048	
16	0.150	-205.19341	63.20082	-206.37402	193.31984	52.21877	-142.52379	-293.33881	-48.20980	420.93756	115.82027	-50.83178	436.43433	-10.59439	1246.41565	-80.71191	-67.91456	641.68481	-304.43881	89.22480	640.56097	-283.26080	-183.41429	478.48041	619.07758	-32.67657	468.85455	636.98761	
17	0.160	-205.19553	63.20821	-206.35516	193.37738	52.24784	-142.48280	-293.39005	-48.15422	420.93622	115.79837	-50.81007	436.46320	-10.60493	1246.42383	-80.70536	-67.88989	641.65991	-304.44098	89.22564	640.57184	-283.24234	-183.38528	478.42892	619.06891	-32.66293	468.84482	636.98590	
18	0.170	-205.19423	63.20330	-206.36276	193.32365	52.23090	-142.54459	-293.33072	-48.19300	420.96289	115.70631	-50.87948	436.40945	-10.59057	1246.41760	-80.69083	-67.87802	641.65137	-304.43774	89.23002	640.54956	-283.24344	-183.36302	478.49728	619.09338	-32.65659	468.84274	636.96570	
19	0.180	-205.19276	63.20834	-206.33467	193.32918	52.27148	-142.50641	-293.33301	-48.14825	420.98874	115.80036	-50.85904	436.44836	-10.56891	1246.42529	-80.72955	-67.86152	641.61041	-304.43179	89.23128	640.56342	-283.26837	-183.38052	478.46637	619.08746	-32.62785	468.85062	636.97943	
20	0.190	-205.19650	63.23436	-206.37418	193.30258	52.23314	-142.52757	-293.33612	-48.14105	420.95193	115.78257	-50.81842	436.43741	-10.56823	1246.41382	-80.70275	-67.85442	641.64001	-304.45175	89.20686	640.60840	-283.24411	-183.36282	478.48581	619.09039	-32.66300	468.82745	636.97198	
21	0.200	-205.18501	63.22531	-206.38901	193.31932	52.22653	-142.51636	-294.45227	-47.30483	420.88608	115.78345	-50.87134	436.45361	-10.53890	1246.42212	-80.70030	-67.82933	641.65271	-304.43967	89.25259	640.55511	-283.25693	-183.36186	478.44983	619.06415	-32.60320	468.85016	636.98602	
22	0.210	-205.19589	63.22328	-206.37341	193.41316	52.27826	-142.41782	-294.47198	-47.29698	420.87039	115.78267	-50.81589	436.46252	-10.55207	1246.41174	-80.72028	-67.82143	641.63739	-304.44473	89.26585	640.57922	-283.26511	-183.36652	478.46625	619.07843	-32.64507	468.84619	636.96802	
23	0.220	-205.17937	63.23072	-206.35825	193.42685	52.30584	-142.43343	-293.31412	-48.17633	420.96365	115.76335	-50.81324	436.45883	-10.56480	1246.41003	-80.71506	-67.80531	641.62042	-304.43347	89.29856	640.56030	-283.24832	-183.38522	478.49591	619.07507	-32.60477	468.83316	636.95520	
24	0.230	-205.21883	63.25133	-206.36714	193.39503	52.24757	-142.48323	-294.48599	-47.31079	420.87625	115.85474	-50.79221	436.49521	-10.56095	1246.43091	-80.71204	-67.79130	641.62622	-304.42230	89.30112	640.58032	-283.26324	-183.37260	478.46994	619.08832	-32.66325	468.83875	636.97778	
25	0.240	-205.17369	63.19196	-206.35054	193.30634	52.21035	-142.49896	-294.49304	-47.29423	420.86130	115.73885	-50.86952	436.43423	-10.54349	1246.42163	-80.71893	-67.83965	641.65674	-304.46191	89.28172	640.56036	-283.23355	-183.36266	478.47238	619.06036	-32.69598	468.83682	637.00043	
26	0.250	-205.19615	63.20490	-206.33438	193.42186	52.22293	-142.45966	-294.48608	-47.29315	420.87173	115.66135	-50.92345	436.40189	-10.53300	1246.40149	-80.72491	-67.84158	641.64911	-304.44998	89.28696	640.56293	-283.23761	-183.38042	478.45126	619.05682	-32.64243	468.85391	636.99365	
27	0.260	-205.17155	63.20463	-206.35759	193.37189	52.21172	-142.49605	-293.32413	-48.19093	420.93356	115.68029	-50.89665	436.43771	-10.54076	1246.40918	-80.71254	-67.79630	641.65503	-304.47037	89.31238	640.51288	-283.25568	-183.37717	478.45508	619.05737	-32.62702	468.82837	636.98047	
28	0.270	-205.17775	63.21991	-206.34695	193.41278	52.23808	-142.46452	-293.33081	-48.17613	420.95105	115.74918	-50.83638	436.46082	-10.55425	1246.42627	-80.71294	-67.76537	641.63953	-304.43451	89.29717	640.55115	-283.25623	-183.38437	478.47662	619.05737	-32.66030	468.83835	636.95972	
